<mxfile host="app.diagrams.net" modified="2022-06-30T18:30:43.842Z" agent="5.0 (Macintosh)" etag="__xM9uD_LjUa2Y82Yhyf" version="20.0.4" type="github">
  <diagram name="Page-1" id="e3a06f82-3646-2815-327d-82caf3d4e204">
    <mxGraphModel dx="1906" dy="1137" grid="1" gridSize="10" guides="1" tooltips="1" connect="1" arrows="1" fold="1" page="1" pageScale="1.5" pageWidth="1169" pageHeight="826" background="none" math="0" shadow="0">
      <root>
        <mxCell id="0" style=";html=1;" />
        <mxCell id="1" style=";html=1;" parent="0" />
        <mxCell id="6a7d8f32e03d9370-61" value="&lt;div style=&quot;font-size: 24px;&quot; align=&quot;center&quot;&gt;&lt;font style=&quot;font-size: 24px;&quot;&gt;&amp;nbsp;&amp;nbsp;&amp;nbsp;&amp;nbsp;&amp;nbsp; API&lt;/font&gt;&lt;/div&gt;" style="whiteSpace=wrap;html=1;fillColor=#f8cecc;fontSize=14;strokeColor=none;verticalAlign=top;align=center;" parent="1" vertex="1">
          <mxGeometry x="1000" y="440" width="420" height="340" as="geometry" />
        </mxCell>
        <mxCell id="6a7d8f32e03d9370-60" value="&lt;font style=&quot;font-size: 24px;&quot;&gt;Backend&lt;/font&gt;" style="whiteSpace=wrap;html=1;fillColor=#d5e8d4;fontSize=14;strokeColor=none;verticalAlign=top;" parent="1" vertex="1">
          <mxGeometry x="1400" y="469" width="230" height="271" as="geometry" />
        </mxCell>
        <mxCell id="6a7d8f32e03d9370-59" value="" style="whiteSpace=wrap;html=1;fillColor=#EDEDED;fontSize=14;strokeColor=none;verticalAlign=top;" parent="1" vertex="1">
          <mxGeometry x="690" y="140" width="200" height="480" as="geometry" />
        </mxCell>
        <mxCell id="6a7d8f32e03d9370-58" value="&lt;font style=&quot;font-size: 24px;&quot;&gt;In-Memory Storage&lt;/font&gt;" style="whiteSpace=wrap;html=1;fillColor=#dae8fc;fontSize=14;strokeColor=none;verticalAlign=top;" parent="1" vertex="1">
          <mxGeometry x="440" y="850" width="820" height="318" as="geometry" />
        </mxCell>
        <mxCell id="6a7d8f32e03d9370-57" value="&lt;font style=&quot;font-size: 24px;&quot;&gt;UI&lt;/font&gt;" style="whiteSpace=wrap;html=1;fillColor=#FFD470;gradientColor=none;fontSize=14;strokeColor=none;verticalAlign=top;" parent="1" vertex="1">
          <mxGeometry x="230" y="120" width="390" height="670" as="geometry" />
        </mxCell>
        <mxCell id="6a7d8f32e03d9370-2" value="&lt;div style=&quot;font-size: 22px;&quot;&gt;&lt;font style=&quot;font-size: 22px;&quot;&gt;confirmation.js&lt;/font&gt;&lt;/div&gt;&lt;div style=&quot;font-size: 22px;&quot;&gt;&lt;font style=&quot;font-size: 22px;&quot;&gt;&lt;br&gt;&lt;/font&gt;&lt;/div&gt;" style="verticalLabelPosition=bottom;aspect=fixed;html=1;verticalAlign=top;strokeColor=none;shape=mxgraph.citrix.laptop_2;fillColor=#66B2FF;gradientColor=#0066CC;fontSize=14;" parent="1" vertex="1">
          <mxGeometry x="419.9999999999999" y="670" width="116" height="86.5" as="geometry" />
        </mxCell>
        <mxCell id="6a7d8f32e03d9370-3" value="&lt;div style=&quot;font-size: 22px;&quot;&gt;&lt;font style=&quot;font-size: 22px;&quot;&gt;cart.js&lt;/font&gt;&lt;/div&gt;&lt;div style=&quot;font-size: 22px;&quot;&gt;&lt;font style=&quot;font-size: 22px;&quot;&gt;&lt;br&gt;&lt;/font&gt;&lt;/div&gt;" style="verticalLabelPosition=bottom;aspect=fixed;html=1;verticalAlign=top;strokeColor=none;shape=mxgraph.citrix.desktop;fillColor=#66B2FF;gradientColor=#0066CC;fontSize=14;" parent="1" vertex="1">
          <mxGeometry x="488.12999999999994" y="481.49999999999994" width="89" height="98" as="geometry" />
        </mxCell>
        <mxCell id="6a7d8f32e03d9370-4" value="&lt;font style=&quot;font-size: 22px;&quot;&gt;product.js&lt;/font&gt;" style="verticalLabelPosition=bottom;aspect=fixed;html=1;verticalAlign=top;strokeColor=none;shape=mxgraph.citrix.desktop;fillColor=#66B2FF;gradientColor=#0066CC;fontSize=14;" parent="1" vertex="1">
          <mxGeometry x="479.99999999999994" y="315.00000000000006" width="89" height="98" as="geometry" />
        </mxCell>
        <mxCell id="6a7d8f32e03d9370-5" value="&lt;div style=&quot;font-size: 22px;&quot;&gt;&lt;font style=&quot;font-size: 22px;&quot;&gt;script.js&lt;/font&gt;&lt;/div&gt;&lt;div style=&quot;font-size: 22px;&quot;&gt;&lt;font style=&quot;font-size: 22px;&quot;&gt;&lt;br&gt;&lt;/font&gt;&lt;/div&gt;" style="verticalLabelPosition=bottom;aspect=fixed;html=1;verticalAlign=top;strokeColor=none;shape=mxgraph.citrix.desktop;fillColor=#66B2FF;gradientColor=#0066CC;fontSize=14;" parent="1" vertex="1">
          <mxGeometry x="488.13000000000005" y="156.00000000000006" width="89" height="98" as="geometry" />
        </mxCell>
        <mxCell id="6a7d8f32e03d9370-50" style="edgeStyle=none;rounded=0;html=1;startSize=10;endSize=10;jettySize=auto;orthogonalLoop=1;fontSize=14;endArrow=none;endFill=0;strokeWidth=2;" parent="1" source="6a7d8f32e03d9370-13" target="6a7d8f32e03d9370-16" edge="1">
          <mxGeometry relative="1" as="geometry" />
        </mxCell>
        <mxCell id="6a7d8f32e03d9370-52" style="edgeStyle=none;rounded=0;html=1;startSize=10;endSize=10;jettySize=auto;orthogonalLoop=1;fontSize=14;endArrow=none;endFill=0;strokeWidth=2;" parent="1" source="6a7d8f32e03d9370-13" target="6a7d8f32e03d9370-29" edge="1">
          <mxGeometry relative="1" as="geometry" />
        </mxCell>
        <mxCell id="6a7d8f32e03d9370-56" style="edgeStyle=none;rounded=0;html=1;startSize=10;endSize=10;jettySize=auto;orthogonalLoop=1;fontSize=14;endArrow=none;endFill=0;strokeWidth=2;" parent="1" source="6a7d8f32e03d9370-58" target="6a7d8f32e03d9370-25" edge="1">
          <mxGeometry relative="1" as="geometry">
            <mxPoint x="1000" y="650" as="sourcePoint" />
            <Array as="points" />
          </mxGeometry>
        </mxCell>
        <mxCell id="6a7d8f32e03d9370-13" value="" style="verticalLabelPosition=bottom;aspect=fixed;html=1;verticalAlign=top;strokeColor=none;shape=mxgraph.citrix.router;fillColor=#66B2FF;gradientColor=#0066CC;fontSize=14;" parent="1" vertex="1">
          <mxGeometry x="710" y="800" width="55" height="36.5" as="geometry" />
        </mxCell>
        <mxCell id="6a7d8f32e03d9370-16" value="" style="verticalLabelPosition=bottom;aspect=fixed;html=1;verticalAlign=top;strokeColor=none;shape=mxgraph.citrix.chassis;fillColor=#66B2FF;gradientColor=#0066CC;fontSize=14;" parent="1" vertex="1">
          <mxGeometry x="550" y="910" width="128.25" height="165.56" as="geometry" />
        </mxCell>
        <mxCell id="6a7d8f32e03d9370-46" style="edgeStyle=none;rounded=0;html=1;startSize=10;endSize=10;jettySize=auto;orthogonalLoop=1;fontSize=14;endArrow=none;endFill=0;strokeWidth=2;" parent="1" target="6a7d8f32e03d9370-13" edge="1">
          <mxGeometry relative="1" as="geometry">
            <mxPoint x="580" y="590" as="sourcePoint" />
          </mxGeometry>
        </mxCell>
        <mxCell id="6a7d8f32e03d9370-25" value="&lt;font style=&quot;font-size: 24px;&quot;&gt;Local Storage&lt;/font&gt;" style="verticalLabelPosition=bottom;aspect=fixed;html=1;verticalAlign=top;strokeColor=none;shape=mxgraph.citrix.proxy_server;fillColor=#66B2FF;gradientColor=#0066CC;fontSize=14;" parent="1" vertex="1">
          <mxGeometry x="1353.5" y="970" width="127.5" height="150" as="geometry" />
        </mxCell>
        <mxCell id="6a7d8f32e03d9370-53" style="edgeStyle=none;rounded=0;html=1;startSize=10;endSize=10;jettySize=auto;orthogonalLoop=1;fontSize=14;endArrow=none;endFill=0;strokeWidth=2;" parent="1" source="6a7d8f32e03d9370-26" target="6a7d8f32e03d9370-29" edge="1">
          <mxGeometry relative="1" as="geometry" />
        </mxCell>
        <mxCell id="6a7d8f32e03d9370-54" style="edgeStyle=none;rounded=0;html=1;startSize=10;endSize=10;jettySize=auto;orthogonalLoop=1;fontSize=14;endArrow=none;endFill=0;strokeWidth=2;" parent="1" source="6a7d8f32e03d9370-26" target="6a7d8f32e03d9370-28" edge="1">
          <mxGeometry relative="1" as="geometry" />
        </mxCell>
        <mxCell id="6a7d8f32e03d9370-55" style="edgeStyle=none;rounded=0;html=1;startSize=10;endSize=10;jettySize=auto;orthogonalLoop=1;fontSize=14;endArrow=none;endFill=0;strokeWidth=2;" parent="1" source="6a7d8f32e03d9370-26" target="6a7d8f32e03d9370-27" edge="1">
          <mxGeometry relative="1" as="geometry" />
        </mxCell>
        <mxCell id="6a7d8f32e03d9370-26" value="" style="verticalLabelPosition=bottom;aspect=fixed;html=1;verticalAlign=top;strokeColor=none;shape=mxgraph.citrix.switch;fillColor=#66B2FF;gradientColor=#0066CC;fontSize=14;" parent="1" vertex="1">
          <mxGeometry x="1120" y="569" width="92" height="41.5" as="geometry" />
        </mxCell>
        <mxCell id="6a7d8f32e03d9370-27" value="&lt;div style=&quot;color: rgb(248, 248, 242); background-color: rgb(39, 40, 34); font-family: Menlo, Monaco, &amp;quot;Courier New&amp;quot;, monospace; font-weight: normal; line-height: 18px; font-size: 22px;&quot;&gt;&lt;div&gt;&lt;font style=&quot;font-size: 22px;&quot;&gt;&lt;span style=&quot;color: #a6e22e;&quot;&gt;getAllProducts&lt;/span&gt;&lt;/font&gt;&lt;/div&gt;&lt;/div&gt;" style="verticalLabelPosition=top;aspect=fixed;html=1;verticalAlign=bottom;strokeColor=none;shape=mxgraph.citrix.thin_client;fillColor=#66B2FF;gradientColor=#0066CC;fontSize=14;labelPosition=center;align=center;" parent="1" vertex="1">
          <mxGeometry x="1049" y="210" width="71" height="71" as="geometry" />
        </mxCell>
        <mxCell id="6a7d8f32e03d9370-28" value="&lt;div style=&quot;color: rgb(248, 248, 242); background-color: rgb(39, 40, 34); font-family: Menlo, Monaco, &amp;quot;Courier New&amp;quot;, monospace; font-weight: normal; line-height: 18px; font-size: 22px;&quot;&gt;&lt;div&gt;&lt;font style=&quot;font-size: 22px;&quot;&gt;&lt;span style=&quot;color: #a6e22e;&quot;&gt;getOneProduct&lt;/span&gt;&lt;/font&gt;&lt;/div&gt;&lt;/div&gt;" style="verticalLabelPosition=top;aspect=fixed;html=1;verticalAlign=bottom;strokeColor=none;shape=mxgraph.citrix.thin_client;fillColor=#66B2FF;gradientColor=#0066CC;fontSize=14;labelPosition=center;align=center;" parent="1" vertex="1">
          <mxGeometry x="1169" y="360" width="71" height="71" as="geometry" />
        </mxCell>
        <mxCell id="6a7d8f32e03d9370-29" value="&lt;div style=&quot;color: rgb(248, 248, 242); background-color: rgb(39, 40, 34); font-family: Menlo, Monaco, &amp;quot;Courier New&amp;quot;, monospace; font-weight: normal; line-height: 18px; font-size: 22px;&quot;&gt;&lt;div&gt;&lt;font style=&quot;font-size: 22px;&quot;&gt;&lt;span style=&quot;color: #a6e22e;&quot;&gt;orderProducts&lt;/span&gt;&lt;/font&gt;&lt;/div&gt;&lt;/div&gt;" style="verticalLabelPosition=top;aspect=fixed;html=1;verticalAlign=bottom;strokeColor=none;shape=mxgraph.citrix.thin_client;fillColor=#66B2FF;gradientColor=#0066CC;fontSize=14;labelPosition=center;align=center;" parent="1" vertex="1">
          <mxGeometry x="1070" y="685.5" width="71" height="71" as="geometry" />
        </mxCell>
        <mxCell id="6a7d8f32e03d9370-30" value="" style="verticalLabelPosition=bottom;aspect=fixed;html=1;verticalAlign=top;strokeColor=none;shape=mxgraph.citrix.web_service;fillColor=#66B2FF;gradientColor=#0066CC;fontSize=14;" parent="1" vertex="1">
          <mxGeometry x="1481" y="577" width="63" height="60" as="geometry" />
        </mxCell>
        <mxCell id="6a7d8f32e03d9370-62" value="&lt;font style=&quot;font-size: 28px;&quot;&gt;Architecture&lt;/font&gt;" style="text;strokeColor=none;fillColor=none;html=1;fontSize=24;fontStyle=1;verticalAlign=middle;align=center;" parent="1" vertex="1">
          <mxGeometry x="520" y="100" width="861" height="40" as="geometry" />
        </mxCell>
        <mxCell id="6Yvv3iXmR4id-OeGxSdJ-9" style="edgeStyle=orthogonalEdgeStyle;rounded=0;orthogonalLoop=1;jettySize=auto;html=1;exitX=0.5;exitY=1;exitDx=0;exitDy=0;" parent="1" source="6a7d8f32e03d9370-59" target="6a7d8f32e03d9370-59" edge="1">
          <mxGeometry relative="1" as="geometry" />
        </mxCell>
        <mxCell id="6Yvv3iXmR4id-OeGxSdJ-14" value="&lt;font style=&quot;font-size: 22px;&quot;&gt;cartStore.js :&amp;nbsp; &lt;/font&gt;&lt;div style=&quot;color: rgb(248, 248, 242); background-color: rgb(39, 40, 34); font-family: Menlo, Monaco, &amp;quot;Courier New&amp;quot;, monospace; font-weight: normal; line-height: 18px;&quot;&gt;&lt;div&gt;&lt;font style=&quot;font-size: 22px;&quot;&gt;&lt;span style=&quot;color: #a6e22e;&quot;&gt;getItems&lt;/span&gt;&lt;span style=&quot;color: #f8f8f2;&quot;&gt;,&lt;br&gt;&lt;br&gt;&lt;/span&gt;&lt;/font&gt;&lt;/div&gt;&lt;div&gt;&lt;font style=&quot;font-size: 22px;&quot;&gt;&lt;span style=&quot;color: #f8f8f2;&quot;&gt;  &lt;/span&gt;&lt;span style=&quot;color: #a6e22e;&quot;&gt;addItem&lt;/span&gt;&lt;span style=&quot;color: #f8f8f2;&quot;&gt;,&lt;br&gt;&lt;br&gt;&lt;/span&gt;&lt;/font&gt;&lt;/div&gt;&lt;div&gt;&lt;font style=&quot;font-size: 22px;&quot;&gt;&lt;span style=&quot;color: #f8f8f2;&quot;&gt;  &lt;/span&gt;&lt;span style=&quot;color: #a6e22e;&quot;&gt;removeItems&lt;/span&gt;&lt;span style=&quot;color: #f8f8f2;&quot;&gt;,&lt;br&gt;&lt;br&gt;&lt;/span&gt;&lt;/font&gt;&lt;/div&gt;&lt;div&gt;&lt;font style=&quot;font-size: 22px;&quot;&gt;&lt;span style=&quot;color: #f8f8f2;&quot;&gt;  &lt;/span&gt;&lt;span style=&quot;color: #a6e22e;&quot;&gt;changeQuantity&lt;/span&gt;&lt;span style=&quot;color: #f8f8f2;&quot;&gt;,&lt;br&gt;&lt;br&gt;&lt;/span&gt;&lt;/font&gt;&lt;/div&gt;&lt;div&gt;&lt;font style=&quot;font-size: 22px;&quot;&gt;&lt;span style=&quot;color: #f8f8f2;&quot;&gt;  &lt;/span&gt;&lt;span style=&quot;color: rgb(166, 226, 46);&quot;&gt;clearCart&lt;/span&gt;&lt;/font&gt;&lt;/div&gt;&lt;/div&gt;" style="text;html=1;resizable=0;autosize=1;align=center;verticalAlign=middle;points=[];fillColor=none;strokeColor=none;rounded=0;fontSize=22;" parent="1" vertex="1">
          <mxGeometry x="740" y="955" width="220" height="200" as="geometry" />
        </mxCell>
        <mxCell id="6Yvv3iXmR4id-OeGxSdJ-15" value="&lt;font style=&quot;font-size: 22px;&quot;&gt;orderStore.js :&lt;br&gt;&lt;/font&gt;&lt;div style=&quot;color: rgb(248, 248, 242); background-color: rgb(39, 40, 34); font-family: Menlo, Monaco, &amp;quot;Courier New&amp;quot;, monospace; font-weight: normal; line-height: 18px;&quot;&gt;&lt;div&gt;&lt;font style=&quot;font-size: 22px;&quot;&gt;&lt;span style=&quot;color: #a6e22e;&quot;&gt;saveOrderId&lt;/span&gt;&lt;span style=&quot;color: #f8f8f2;&quot;&gt;,&lt;br&gt;&lt;br&gt;&lt;/span&gt;&lt;/font&gt;&lt;/div&gt;&lt;div&gt;&lt;font style=&quot;font-size: 22px;&quot;&gt;&lt;span style=&quot;color: #f8f8f2;&quot;&gt;  &lt;/span&gt;&lt;span style=&quot;color: #a6e22e;&quot;&gt;getOrderId&lt;/span&gt;&lt;span style=&quot;color: #f8f8f2;&quot;&gt;,&lt;br&gt;&lt;br&gt;&lt;/span&gt;&lt;/font&gt;&lt;/div&gt;&lt;div&gt;&lt;font style=&quot;font-size: 22px;&quot;&gt;&lt;span style=&quot;color: #f8f8f2;&quot;&gt;  &lt;/span&gt;&lt;span style=&quot;color: #a6e22e;&quot;&gt;clearOrderId&lt;/span&gt;&lt;/font&gt;&lt;/div&gt;&lt;/div&gt;" style="text;html=1;resizable=0;autosize=1;align=center;verticalAlign=middle;points=[];fillColor=none;strokeColor=none;rounded=0;fontSize=22;" parent="1" vertex="1">
          <mxGeometry x="980" y="927.78" width="180" height="130" as="geometry" />
        </mxCell>
        <mxCell id="6Yvv3iXmR4id-OeGxSdJ-16" value="&lt;span style=&quot;background-color: rgb(0, 0, 0);&quot;&gt;&lt;font style=&quot;font-size: 22px;&quot;&gt;&lt;span style=&quot;color: #a6e22e;&quot;&gt;addItem&lt;/span&gt;&lt;/font&gt;&lt;/span&gt;" style="text;html=1;resizable=0;autosize=1;align=center;verticalAlign=middle;points=[];fillColor=none;strokeColor=none;rounded=0;fontSize=22;" parent="1" vertex="1">
          <mxGeometry x="290" y="360" width="100" height="40" as="geometry" />
        </mxCell>
        <mxCell id="6Yvv3iXmR4id-OeGxSdJ-17" value="" style="shape=actor;whiteSpace=wrap;html=1;labelBackgroundColor=#000000;fontSize=22;" parent="1" vertex="1">
          <mxGeometry x="90" y="385" width="100" height="140" as="geometry" />
        </mxCell>
        <mxCell id="6Yvv3iXmR4id-OeGxSdJ-18" value="" style="shape=singleArrow;whiteSpace=wrap;html=1;labelBackgroundColor=#000000;fontSize=22;" parent="1" vertex="1">
          <mxGeometry x="200" y="360" width="60" height="40" as="geometry" />
        </mxCell>
        <mxCell id="6Yvv3iXmR4id-OeGxSdJ-19" value="&lt;div style=&quot;color: rgb(248, 248, 242); background-color: rgb(39, 40, 34); font-family: Menlo, Monaco, &amp;quot;Courier New&amp;quot;, monospace; font-weight: normal; font-size: 12px; line-height: 18px;&quot;&gt;&lt;div&gt;&lt;span style=&quot;color: rgb(166, 226, 46); font-size: 21px;&quot;&gt;cartFunctionality&lt;/span&gt;&lt;/div&gt;&lt;/div&gt;" style="text;html=1;resizable=0;autosize=1;align=center;verticalAlign=middle;points=[];fillColor=none;strokeColor=none;rounded=0;labelBackgroundColor=#000000;fontSize=22;" parent="1" vertex="1">
          <mxGeometry x="228.5" y="520.5" width="240" height="30" as="geometry" />
        </mxCell>
        <mxCell id="6Yvv3iXmR4id-OeGxSdJ-20" value="" style="shape=singleArrow;whiteSpace=wrap;html=1;labelBackgroundColor=#000000;fontSize=22;" parent="1" vertex="1">
          <mxGeometry x="180" y="539.5" width="60" height="40" as="geometry" />
        </mxCell>
        <mxCell id="6Yvv3iXmR4id-OeGxSdJ-21" style="edgeStyle=orthogonalEdgeStyle;rounded=0;orthogonalLoop=1;jettySize=auto;html=1;exitX=0;exitY=0;exitDx=24;exitDy=26;exitPerimeter=0;entryX=0;entryY=0.5;entryDx=0;entryDy=0;entryPerimeter=0;fontSize=21;" parent="1" source="6Yvv3iXmR4id-OeGxSdJ-18" target="6Yvv3iXmR4id-OeGxSdJ-18" edge="1">
          <mxGeometry relative="1" as="geometry" />
        </mxCell>
        <mxCell id="6Yvv3iXmR4id-OeGxSdJ-23" value="&lt;font style=&quot;font-size: 22px;&quot; color=&quot;#00FF80&quot;&gt;form&amp;nbsp; &lt;/font&gt;&lt;font style=&quot;font-size: 22px;&quot;&gt;&lt;br&gt;&lt;/font&gt;&lt;div style=&quot;color: rgb(248, 248, 242); background-color: rgb(39, 40, 34); font-family: Menlo, Monaco, &amp;quot;Courier New&amp;quot;, monospace; font-weight: normal; line-height: 18px;&quot;&gt;&lt;div&gt;&lt;font style=&quot;font-size: 22px;&quot;&gt;&lt;span style=&quot;color: #e6db74;&quot;&gt;&#39;submit&#39;&lt;/span&gt;&lt;/font&gt;&lt;/div&gt;&lt;/div&gt;&lt;font style=&quot;font-size: 22px;&quot; color=&quot;#00FF80&quot;&gt;&lt;/font&gt;" style="text;html=1;resizable=0;autosize=1;align=center;verticalAlign=middle;points=[];fillColor=none;strokeColor=none;rounded=0;labelBackgroundColor=#000000;fontSize=22;" parent="1" vertex="1">
          <mxGeometry x="290" y="550.5" width="130" height="60" as="geometry" />
        </mxCell>
        <mxCell id="6Yvv3iXmR4id-OeGxSdJ-25" value="" style="endArrow=classic;html=1;rounded=0;fontSize=22;fontColor=#00FF80;exitX=-0.073;exitY=0.658;exitDx=0;exitDy=0;exitPerimeter=0;" parent="1" source="6a7d8f32e03d9370-13" target="6a7d8f32e03d9370-2" edge="1">
          <mxGeometry width="50" height="50" relative="1" as="geometry">
            <mxPoint x="530" y="860" as="sourcePoint" />
            <mxPoint x="450" y="800" as="targetPoint" />
          </mxGeometry>
        </mxCell>
        <mxCell id="6Yvv3iXmR4id-OeGxSdJ-26" style="edgeStyle=orthogonalEdgeStyle;rounded=0;orthogonalLoop=1;jettySize=auto;html=1;exitX=0;exitY=0;exitDx=24;exitDy=14;exitPerimeter=0;entryX=0.717;entryY=0.425;entryDx=0;entryDy=0;entryPerimeter=0;fontSize=22;fontColor=#00FF80;" parent="1" source="6Yvv3iXmR4id-OeGxSdJ-20" target="6Yvv3iXmR4id-OeGxSdJ-20" edge="1">
          <mxGeometry relative="1" as="geometry" />
        </mxCell>
        <mxCell id="6Yvv3iXmR4id-OeGxSdJ-27" value="&lt;div style=&quot;color: rgb(248, 248, 242); background-color: rgb(39, 40, 34); font-family: Menlo, Monaco, &amp;quot;Courier New&amp;quot;, monospace; font-weight: normal; line-height: 18px;&quot;&gt;&lt;div&gt;&lt;font style=&quot;font-size: 22px;&quot;&gt;&lt;span style=&quot;color: #a6e22e;&quot;&gt;getStorageItem&lt;br&gt;&lt;/span&gt;&lt;/font&gt;&lt;div style=&quot;color: rgb(248, 248, 242); background-color: rgb(39, 40, 34); font-family: Menlo, Monaco, &amp;quot;Courier New&amp;quot;, monospace; font-weight: normal; line-height: 18px;&quot;&gt;&lt;div&gt;&lt;font style=&quot;font-size: 22px;&quot;&gt;&lt;span style=&quot;color: #a6e22e;&quot;&gt;&lt;br&gt;setStorageItem&lt;/span&gt;&lt;/font&gt;&lt;/div&gt;&lt;/div&gt;&lt;font style=&quot;font-size: 22px;&quot;&gt;&lt;span style=&quot;color: #a6e22e;&quot;&gt;&lt;/span&gt;&lt;/font&gt;&lt;/div&gt;&lt;/div&gt;" style="text;html=1;align=center;verticalAlign=middle;resizable=0;points=[];autosize=1;strokeColor=none;fillColor=none;fontSize=22;fontColor=#00FF80;" parent="1" vertex="1">
          <mxGeometry x="1320" y="900" width="210" height="70" as="geometry" />
        </mxCell>
        <mxCell id="6Yvv3iXmR4id-OeGxSdJ-28" value="" style="endArrow=classic;html=1;rounded=0;fontSize=22;fontColor=#00FF80;exitX=-0.003;exitY=0.467;exitDx=0;exitDy=0;exitPerimeter=0;" parent="1" source="bnhZf3ukg1OSAdI4wHLO-3" edge="1">
          <mxGeometry width="50" height="50" relative="1" as="geometry">
            <mxPoint x="756" y="225.00599999999997" as="sourcePoint" />
            <mxPoint x="580" y="220" as="targetPoint" />
          </mxGeometry>
        </mxCell>
        <mxCell id="6Yvv3iXmR4id-OeGxSdJ-29" value="" style="endArrow=classic;html=1;rounded=0;fontSize=22;fontColor=#00FF80;" parent="1" edge="1" source="bnhZf3ukg1OSAdI4wHLO-2">
          <mxGeometry width="50" height="50" relative="1" as="geometry">
            <mxPoint x="753.13" y="379.0060000000001" as="sourcePoint" />
            <mxPoint x="577.13" y="374" as="targetPoint" />
          </mxGeometry>
        </mxCell>
        <mxCell id="6Yvv3iXmR4id-OeGxSdJ-30" value="" style="endArrow=classic;html=1;rounded=0;fontSize=22;fontColor=#00FF80;" parent="1" source="bnhZf3ukg1OSAdI4wHLO-1" edge="1">
          <mxGeometry width="50" height="50" relative="1" as="geometry">
            <mxPoint x="711.9749999999999" y="567.983" as="sourcePoint" />
            <mxPoint x="577.13" y="539.5" as="targetPoint" />
          </mxGeometry>
        </mxCell>
        <mxCell id="6Yvv3iXmR4id-OeGxSdJ-33" value="" style="endArrow=none;html=1;rounded=0;fontSize=22;fontColor=#00FF80;exitX=0.225;exitY=0.465;exitDx=0;exitDy=0;exitPerimeter=0;" parent="1" source="6a7d8f32e03d9370-27" target="bnhZf3ukg1OSAdI4wHLO-3" edge="1">
          <mxGeometry width="50" height="50" relative="1" as="geometry">
            <mxPoint x="840" y="530" as="sourcePoint" />
            <mxPoint x="831.9749999999999" y="230.95799999999997" as="targetPoint" />
          </mxGeometry>
        </mxCell>
        <mxCell id="6Yvv3iXmR4id-OeGxSdJ-34" value="" style="endArrow=none;html=1;rounded=0;fontSize=22;fontColor=#00FF80;" parent="1" target="bnhZf3ukg1OSAdI4wHLO-2" edge="1">
          <mxGeometry width="50" height="50" relative="1" as="geometry">
            <mxPoint x="1160" y="410.52" as="sourcePoint" />
            <mxPoint x="834" y="380.4759834938102" as="targetPoint" />
          </mxGeometry>
        </mxCell>
        <mxCell id="6Yvv3iXmR4id-OeGxSdJ-35" value="" style="endArrow=none;html=1;rounded=0;fontSize=22;fontColor=#00FF80;exitX=0.655;exitY=-0.11;exitDx=0;exitDy=0;exitPerimeter=0;" parent="1" source="6a7d8f32e03d9370-13" edge="1">
          <mxGeometry width="50" height="50" relative="1" as="geometry">
            <mxPoint x="850" y="680" as="sourcePoint" />
            <mxPoint x="725.3232307877634" y="593" as="targetPoint" />
          </mxGeometry>
        </mxCell>
        <mxCell id="6Yvv3iXmR4id-OeGxSdJ-36" value="" style="endArrow=classic;html=1;rounded=0;fontSize=22;fontColor=#00FF80;" parent="1" edge="1">
          <mxGeometry width="50" height="50" relative="1" as="geometry">
            <mxPoint x="570" y="420" as="sourcePoint" />
            <mxPoint x="730" y="790" as="targetPoint" />
          </mxGeometry>
        </mxCell>
        <mxCell id="bnhZf3ukg1OSAdI4wHLO-1" value="&lt;div style=&quot;color: rgb(248, 248, 242); background-color: rgb(39, 40, 34); font-family: Menlo, Monaco, &amp;quot;Courier New&amp;quot;, monospace; font-weight: normal; line-height: 18px; font-size: 22px;&quot;&gt;&lt;div&gt;&lt;font style=&quot;font-size: 22px;&quot;&gt;&lt;span style=&quot;color: #a6e22e;&quot;&gt;loadCart&lt;/span&gt;&lt;/font&gt;&lt;/div&gt;&lt;/div&gt;" style="text;html=1;resizable=0;autosize=1;align=center;verticalAlign=middle;points=[];fillColor=none;strokeColor=none;rounded=0;" vertex="1" parent="1">
          <mxGeometry x="690" y="560" width="130" height="30" as="geometry" />
        </mxCell>
        <mxCell id="bnhZf3ukg1OSAdI4wHLO-2" value="&lt;div style=&quot;color: rgb(248, 248, 242); background-color: rgb(39, 40, 34); font-family: Menlo, Monaco, &amp;quot;Courier New&amp;quot;, monospace; font-weight: normal; line-height: 18px; font-size: 22px;&quot;&gt;&lt;div&gt;&lt;font style=&quot;font-size: 22px;&quot;&gt;&lt;span style=&quot;color: #a6e22e;&quot;&gt;loadOneProduct&lt;/span&gt;&lt;/font&gt;&lt;/div&gt;&lt;/div&gt;" style="text;html=1;resizable=0;autosize=1;align=center;verticalAlign=middle;points=[];fillColor=none;strokeColor=none;rounded=0;" vertex="1" parent="1">
          <mxGeometry x="681.5" y="383" width="210" height="30" as="geometry" />
        </mxCell>
        <mxCell id="bnhZf3ukg1OSAdI4wHLO-3" value="&lt;div style=&quot;color: rgb(248, 248, 242); background-color: rgb(39, 40, 34); font-family: Menlo, Monaco, &amp;quot;Courier New&amp;quot;, monospace; font-weight: normal; line-height: 18px; font-size: 22px;&quot;&gt;&lt;div&gt;&lt;font style=&quot;font-size: 22px;&quot;&gt;&lt;span style=&quot;color: #a6e22e;&quot;&gt;loadProducts&lt;/span&gt;&lt;/font&gt;&lt;/div&gt;&lt;/div&gt;" style="text;html=1;resizable=0;autosize=1;align=center;verticalAlign=middle;points=[];fillColor=none;strokeColor=none;rounded=0;" vertex="1" parent="1">
          <mxGeometry x="696.5" y="210" width="180" height="30" as="geometry" />
        </mxCell>
      </root>
    </mxGraphModel>
  </diagram>
</mxfile>
